# xmcd
#
# Track frame offsets: 
#        150
#        22035
#        38787
#        54377
#        69159
#        83482
#        98509
#        116221
#        129951
#        147112
#        163794
#        184455
#        204984
#        222702
#        239255
#        272580
#        290839
#        309573
#
# Disc length: 4393 seconds
#
# Revision: 0
# Processed by: cddbd v1.5.2PL0 Copyright (c) Steve Scherf et al.
# Submitted via: ExactAudioCopy v1.0b4
#
DISCID=07112712
DTITLE=Shawn Pittman - Movin' and Groovin'
DYEAR=2012
DGENRE=Blues
TTITLE0=Movin'
TTITLE1=Watch Out, Baby
TTITLE2=She's Evil
TTITLE3=Yes She Does
TTITLE4=Give Me Back My Wig
TTITLE5=Cruisin'
TTITLE6=One Thing On My Mind
TTITLE7=That First Drink
TTITLE8=Something To Remember You By
TTITLE9=One Of These Days
TTITLE10=Something's Gotta Give
TTITLE11=Just A Game
TTITLE12=East Side Groove
TTITLE13=Distress Signal
TTITLE14=I Smell Trouble
TTITLE15=Deals You Made
TTITLE16=Feast Or Famine
TTITLE17=Reap What You Sow
EXTD=
EXTT0=
EXTT1=
EXTT2=
EXTT3=
EXTT4=
EXTT5=
EXTT6=
EXTT7=
EXTT8=
EXTT9=
EXTT10=
EXTT11=
EXTT12=
EXTT13=
EXTT14=
EXTT15=
EXTT16=
EXTT17=
PLAYORDER=
